<?xml version="1.0" encoding="UTF-8" standalone="no" ?>
<!DOCTYPE svg PUBLIC "-//W3C//DTD SVG 1.1//EN" "http://www.w3.org/Graphics/SVG/1.1/DTD/svg11.dtd">
<svg xmlns="http://www.w3.org/2000/svg" xmlns:xlink="http://www.w3.org/1999/xlink" version="1.1" width="1080" height="1080" viewBox="0 0 1080 1080" xml:space="preserve">
<desc>Created with Fabric.js 5.2.4</desc>
<defs>
</defs>
<g transform="matrix(1 0 0 1 540 540)" id="443b1d2a-31c8-4f8c-b294-dd0479aa0c68"  >
</g>
<g transform="matrix(1 0 0 1 540 540)" id="a64e90cc-9582-4219-9a12-12413a6e01c2"  >
<rect style="stroke: none; stroke-width: 1; stroke-dasharray: none; stroke-linecap: butt; stroke-dashoffset: 0; stroke-linejoin: miter; stroke-miterlimit: 4; fill: rgb(255,255,255); fill-rule: nonzero; opacity: 1; visibility: hidden;" vector-effect="non-scaling-stroke"  x="-540" y="-540" rx="0" ry="0" width="1080" height="1080" />
</g>
<g transform="matrix(NaN NaN NaN NaN 0 0)"  >
<g style=""   >
</g>
</g>
<g transform="matrix(13.47 0 0 13.47 540 540)"  >
<path style="stroke: none; stroke-width: 1; stroke-dasharray: none; stroke-linecap: butt; stroke-dashoffset: 0; stroke-linejoin: miter; stroke-miterlimit: 4; fill: rgb(228,70,11); fill-rule: evenodd; opacity: 1;" vector-effect="non-scaling-stroke"  transform=" translate(-110, -40)" d="M 70 0 L 90 0 L 110 0 L 110 20 L 90 20 L 90 40 L 110 40 L 110 60 L 90 60 L 70 60 L 70 40 L 70 20 L 70 0 Z M 110 60 L 110 80 L 130 80 L 150 80 L 150 60 L 150 40 L 150 20 L 130 20 L 110 20 L 110 40 L 130 40 L 130 60 L 110 60 Z" stroke-linecap="round" />
</g>
</svg>